<?xml version="1.0" encoding="UTF-8" standalone="no"?>
<!DOCTYPE svg PUBLIC "-//W3C//DTD SVG 1.1//EN"
 "http://www.w3.org/Graphics/SVG/1.1/DTD/svg11.dtd">
<!-- Generated by graphviz version 2.40.1 (20161225.0304)
 -->
<!-- Title: G Pages: 1 -->
<svg width="649pt" height="109pt"
 viewBox="0.00 0.00 649.00 109.47" xmlns="http://www.w3.org/2000/svg" xmlns:xlink="http://www.w3.org/1999/xlink">
<g id="graph0" class="graph" transform="scale(1 1) rotate(0) translate(4 105.4748)">
<title>G</title>
<polygon fill="#ffffff" stroke="transparent" points="-4,4 -4,-105.4748 645,-105.4748 645,4 -4,4"/>
<!-- a -->
<g id="node1" class="node">
<title>a</title>
<polygon fill="none" stroke="#000000" points="0,-28.9748 0,-64.9748 67,-64.9748 67,-28.9748 0,-28.9748"/>
<text text-anchor="middle" x="33.5" y="-43.2748" font-family="Times,serif" font-size="14.00" fill="#000000">a(switch)</text>
</g>
<!-- b -->
<g id="node2" class="node">
<title>b</title>
<polygon fill="none" stroke="#000000" points="143,-64.9748 143,-100.9748 211,-100.9748 211,-64.9748 143,-64.9748"/>
<text text-anchor="middle" x="177" y="-79.2748" font-family="Times,serif" font-size="14.00" fill="#000000">b(switch)</text>
</g>
<!-- a&#45;&gt;b -->
<g id="edge1" class="edge">
<title>a&#45;&gt;b</title>
<path fill="none" stroke="#000000" d="M67.1444,-55.4152C86.7394,-60.3311 111.676,-66.5869 132.8365,-71.8955"/>
<polygon fill="#000000" stroke="#000000" points="132.0186,-75.2987 142.5697,-74.3373 133.722,-68.5091 132.0186,-75.2987"/>
<text text-anchor="middle" x="105" y="-73.7748" font-family="Times,serif" font-size="14.00" fill="#000000">(1) 100</text>
</g>
<!-- c -->
<g id="node3" class="node">
<title>c</title>
<polygon fill="none" stroke="#000000" points="287,-20.9748 287,-56.9748 354,-56.9748 354,-20.9748 287,-20.9748"/>
<text text-anchor="middle" x="320.5" y="-35.2748" font-family="Times,serif" font-size="14.00" fill="#000000">c(switch)</text>
</g>
<!-- b&#45;&gt;c -->
<g id="edge2" class="edge">
<title>b&#45;&gt;c</title>
<path fill="none" stroke="#000000" d="M211.0337,-70.8861C217.0022,-68.8543 223.1681,-66.8112 229,-64.9748 244.6349,-60.0517 261.9011,-55.0377 277.183,-50.7432"/>
<polygon fill="#000000" stroke="#000000" points="278.2094,-54.0906 286.9019,-48.0333 276.3292,-47.3479 278.2094,-54.0906"/>
<text text-anchor="middle" x="249" y="-68.7748" font-family="Times,serif" font-size="14.00" fill="#000000">(1) 100</text>
</g>
<!-- c&#45;&gt;a -->
<g id="edge4" class="edge">
<title>c&#45;&gt;a</title>
<path fill="none" stroke="#000000" d="M286.7905,-38.5816C251.077,-38.3015 193.0465,-38.2357 143,-39.9748 121.2762,-40.7298 97.1628,-42.2025 77.1063,-43.6031"/>
<polygon fill="#000000" stroke="#000000" points="76.7466,-40.1198 67.022,-44.3248 77.2463,-47.1019 76.7466,-40.1198"/>
<text text-anchor="middle" x="177" y="-43.7748" font-family="Times,serif" font-size="14.00" fill="#000000">(1) 100</text>
</g>
<!-- d -->
<g id="node5" class="node">
<title>d</title>
<polygon fill="none" stroke="#000000" points="430,-28.9748 430,-64.9748 498,-64.9748 498,-28.9748 430,-28.9748"/>
<text text-anchor="middle" x="464" y="-43.2748" font-family="Times,serif" font-size="14.00" fill="#000000">d(switch)</text>
</g>
<!-- c&#45;&gt;d -->
<g id="edge7" class="edge">
<title>c&#45;&gt;d</title>
<path fill="none" stroke="#000000" d="M354.1444,-40.8505C373.6507,-41.938 398.4504,-43.3205 419.549,-44.4967"/>
<polygon fill="#000000" stroke="#000000" points="419.3904,-47.9932 429.5697,-45.0554 419.7801,-41.0041 419.3904,-47.9932"/>
<text text-anchor="middle" x="392" y="-47.7748" font-family="Times,serif" font-size="14.00" fill="#000000">(1) 100</text>
</g>
<!-- e -->
<g id="node4" class="node">
<title>e</title>
<polygon fill="none" stroke="#000000" points="574,-28.9748 574,-64.9748 641,-64.9748 641,-28.9748 574,-28.9748"/>
<text text-anchor="middle" x="607.5" y="-43.2748" font-family="Times,serif" font-size="14.00" fill="#000000">e(switch)</text>
</g>
<!-- e&#45;&gt;b -->
<g id="edge3" class="edge">
<title>e&#45;&gt;b</title>
<path fill="none" stroke="#000000" d="M573.7528,-60.6035C567.9009,-62.6261 561.8243,-64.5171 556,-65.9748 530.7568,-72.293 523.9332,-71.8292 498,-73.9748 399.5199,-82.1227 283.53,-83.3023 221.4854,-83.257"/>
<polygon fill="#000000" stroke="#000000" points="221.2793,-79.7567 211.2728,-83.2379 221.2662,-86.7567 221.2793,-79.7567"/>
<text text-anchor="middle" x="392" y="-83.7748" font-family="Times,serif" font-size="14.00" fill="#000000">(1) 100</text>
</g>
<!-- e&#45;&gt;c -->
<g id="edge5" class="edge">
<title>e&#45;&gt;c</title>
<path fill="none" stroke="#000000" d="M573.9599,-30.0119C552.7737,-20.2651 524.4888,-8.9894 498,-3.9748 468.3052,1.6467 459.8614,.6815 430,-3.9748 407.7322,-7.4471 383.8037,-14.6661 364.0122,-21.6508"/>
<polygon fill="#000000" stroke="#000000" points="362.5697,-18.4509 354.3631,-25.1518 364.9572,-25.0311 362.5697,-18.4509"/>
<text text-anchor="middle" x="464" y="-7.7748" font-family="Times,serif" font-size="14.00" fill="#000000">(1) 100</text>
</g>
<!-- d&#45;&gt;e -->
<g id="edge6" class="edge">
<title>d&#45;&gt;e</title>
<path fill="none" stroke="#000000" d="M498.0075,-46.9748C517.6658,-46.9748 542.6082,-46.9748 563.7202,-46.9748"/>
<polygon fill="#000000" stroke="#000000" points="563.7366,-50.4749 573.7366,-46.9748 563.7366,-43.4749 563.7366,-50.4749"/>
<text text-anchor="middle" x="536" y="-50.7748" font-family="Times,serif" font-size="14.00" fill="#000000">(1) 100</text>
</g>
</g>
</svg>
