<?xml version="1.0" encoding="UTF-8" standalone="no"?>
<!DOCTYPE svg PUBLIC "-//W3C//DTD SVG 1.1//EN"
 "http://www.w3.org/Graphics/SVG/1.1/DTD/svg11.dtd">
<!-- Generated by graphviz version 2.40.1 (20161225.0304)
 -->
<!-- Title: G Pages: 1 -->
<svg width="336pt" height="81pt"
 viewBox="0.00 0.00 336.00 81.00" xmlns="http://www.w3.org/2000/svg" xmlns:xlink="http://www.w3.org/1999/xlink">
<g id="graph0" class="graph" transform="scale(1 1) rotate(0) translate(4 77)">
<title>G</title>
<polygon fill="#ffffff" stroke="transparent" points="-4,4 -4,-77 332,-77 332,4 -4,4"/>
<!-- a -->
<g id="node1" class="node">
<title>a</title>
<polygon fill="none" stroke="#000000" points="0,-.5 0,-36.5 67,-36.5 67,-.5 0,-.5"/>
<text text-anchor="middle" x="33.5" y="-14.8" font-family="Times,serif" font-size="14.00" fill="#000000">a(switch)</text>
</g>
<!-- b -->
<g id="node2" class="node">
<title>b</title>
<polygon fill="none" stroke="#000000" points="130,-36.5 130,-72.5 198,-72.5 198,-36.5 130,-36.5"/>
<text text-anchor="middle" x="164" y="-50.8" font-family="Times,serif" font-size="14.00" fill="#000000">b(switch)</text>
</g>
<!-- a&#45;&gt;b -->
<g id="edge1" class="edge">
<title>a&#45;&gt;b</title>
<path fill="none" stroke="#000000" d="M67.107,-27.7709C83.142,-32.1943 102.541,-37.5458 119.7562,-42.2948"/>
<polygon fill="#000000" stroke="#000000" points="119.0273,-45.7244 129.598,-45.0098 120.8888,-38.9765 119.0273,-45.7244"/>
<text text-anchor="middle" x="98.5" y="-43.3" font-family="Times,serif" font-size="14.00" fill="#000000">(1) 3</text>
</g>
<!-- c -->
<g id="node3" class="node">
<title>c</title>
<polygon fill="none" stroke="#000000" points="261,-.5 261,-36.5 328,-36.5 328,-.5 261,-.5"/>
<text text-anchor="middle" x="294.5" y="-14.8" font-family="Times,serif" font-size="14.00" fill="#000000">c(switch)</text>
</g>
<!-- b&#45;&gt;c -->
<g id="edge2" class="edge">
<title>b&#45;&gt;c</title>
<path fill="none" stroke="#000000" d="M198.2873,-45.0414C214.4481,-40.5833 233.9076,-35.2152 251.0851,-30.4765"/>
<polygon fill="#000000" stroke="#000000" points="252.1839,-33.8042 260.893,-27.7709 250.3223,-27.0563 252.1839,-33.8042"/>
<text text-anchor="middle" x="229.5" y="-43.3" font-family="Times,serif" font-size="14.00" fill="#000000">(1) 3</text>
</g>
<!-- c&#45;&gt;a -->
<g id="edge3" class="edge">
<title>c&#45;&gt;a</title>
<path fill="none" stroke="#000000" d="M260.5914,-15.4374C242.1065,-13.9199 218.8152,-12.254 198,-11.5 167.7976,-10.406 160.2024,-10.406 130,-11.5 112.925,-12.1185 94.1839,-13.3506 77.7964,-14.6111"/>
<polygon fill="#000000" stroke="#000000" points="77.0996,-11.1554 67.4086,-15.4374 77.6547,-18.1334 77.0996,-11.1554"/>
<text text-anchor="middle" x="164" y="-15.3" font-family="Times,serif" font-size="14.00" fill="#000000">(1) 3</text>
</g>
</g>
</svg>
